<svg width="24" height="24" viewBox="0 0 24 24" fill="none" xmlns="http://www.w3.org/2000/svg">
<path d="M2.10054 2.10051C3.27212 0.928939 5.17161 0.928939 6.34318 2.10051L2.10054 6.34315C0.92897 5.17158 0.92897 3.27208 2.10054 2.10051Z" fill="black"/>
<path d="M16 12C16 12.5523 15.5523 13 15 13L12 13C11.7348 13 11.4805 12.8947 11.2929 12.7071C11.1054 12.5196 11 12.2652 11 12V8.00001C11 7.44773 11.4477 7.00001 12 7.00001C12.5523 7.00001 13 7.44773 13 8.00001V11L15 11C15.5523 11 16 11.4477 16 12Z" fill="black"/>
<path fill-rule="evenodd" clip-rule="evenodd" d="M19.0319 17.6177C20.2635 16.078 21 14.125 21 12C21 7.02945 16.9706 3.00001 12 3.00001C7.02945 3.00001 3.00002 7.02945 3.00002 12C3.00002 14.125 3.73649 16.078 4.96812 17.6177L3.29291 19.2929C2.90239 19.6834 2.90239 20.3166 3.29291 20.7071C3.68343 21.0976 4.3166 21.0976 4.70712 20.7071L6.38233 19.0319C7.922 20.2635 9.875 21 12 21C14.125 21 16.078 20.2635 17.6177 19.0319L19.2929 20.7071C19.6835 21.0976 20.3166 21.0976 20.7071 20.7071C21.0977 20.3166 21.0977 19.6834 20.7071 19.2929L19.0319 17.6177ZM12 19C15.866 19 19 15.866 19 12C19 8.13402 15.866 5.00001 12 5.00001C8.13402 5.00001 5.00002 8.13402 5.00002 12C5.00002 15.866 8.13402 19 12 19Z" fill="black"/>
<path d="M21.8995 6.34318C23.0711 5.17161 23.0711 3.27211 21.8995 2.10054C20.7279 0.928965 18.8285 0.928965 17.6569 2.10054L21.8995 6.34318Z" fill="black"/>
</svg>
