<svg width="24" height="24" viewBox="0 0 24 24" fill="none" xmlns="http://www.w3.org/2000/svg">
<path d="M2.10048 3.1005C3.27205 1.92892 5.17155 1.92892 6.34312 3.1005L2.10048 7.34314C0.928909 6.17156 0.928909 4.27207 2.10048 3.1005Z" fill="black"/>
<path d="M16 13C16 13.5523 15.5522 14 15 14L12 14C11.7348 14 11.4804 13.8947 11.2929 13.7071C11.1053 13.5196 11 13.2652 11 13V9C11 8.44771 11.4477 8 12 8C12.5523 8 13 8.44771 13 9V12L15 12C15.5522 12 16 12.4477 16 13Z" fill="black"/>
<path fill-rule="evenodd" clip-rule="evenodd" d="M19.0319 18.6177C20.2635 17.078 21 15.125 21 13C21 8.02944 16.9705 4 12 4C7.02939 4 2.99996 8.02944 2.99996 13C2.99996 15.125 3.73643 17.078 4.96806 18.6177L3.29285 20.2929C2.90233 20.6834 2.90233 21.3166 3.29285 21.7071C3.68337 22.0976 4.31654 22.0976 4.70706 21.7071L6.38227 20.0319C7.92194 21.2635 9.87494 22 12 22C14.125 22 16.078 21.2635 17.6177 20.0319L19.2929 21.7071C19.6834 22.0976 20.3166 22.0976 20.7071 21.7071C21.0976 21.3166 21.0976 20.6834 20.7071 20.2929L19.0319 18.6177ZM12 20C15.8659 20 19 16.866 19 13C19 9.134 15.8659 6 12 6C8.13396 6 4.99996 9.134 4.99996 13C4.99996 16.866 8.13396 20 12 20Z" fill="black"/>
<path d="M21.8995 7.34316C23.071 6.17159 23.071 4.2721 21.8995 3.10052C20.7279 1.92895 18.8284 1.92895 17.6568 3.10052L21.8995 7.34316Z" fill="black"/>
</svg>
