<svg width="24" height="24" viewBox="0 0 24 24" fill="none" xmlns="http://www.w3.org/2000/svg">
<path fill-rule="evenodd" clip-rule="evenodd" d="M10.7071 4.51472C12.6597 2.5621 15.8256 2.5621 17.7782 4.51472C19.7308 6.46734 19.7308 9.63317 17.7782 11.5858L12.1213 17.2426C10.9497 18.4142 9.05025 18.4142 7.87868 17.2426C6.70711 16.0711 6.70711 14.1716 7.87868 13L13.5355 7.34315C13.9261 6.95262 14.5592 6.95262 14.9497 7.34315C15.3403 7.73367 15.3403 8.36684 14.9497 8.75736L9.29289 14.4142C8.90237 14.8047 8.90237 15.4379 9.29289 15.8284C9.68342 16.219 10.3166 16.219 10.7071 15.8284L16.364 10.1716C17.5355 9 17.5355 7.10051 16.364 5.92893C15.1924 4.75736 13.2929 4.75736 12.1213 5.92893L6.46447 11.5858C4.51184 13.5384 4.51184 16.7042 6.46447 18.6569C8.41709 20.6095 11.5829 20.6095 13.5355 18.6569L16.364 15.8284C16.7545 15.4379 17.3877 15.4379 17.7782 15.8284C18.1687 16.219 18.1687 16.8521 17.7782 17.2426L14.9497 20.0711C12.2161 22.8047 7.78392 22.8047 5.05025 20.0711C2.31658 17.3374 2.31658 12.9052 5.05025 10.1716L10.7071 4.51472Z" fill="black"/>
</svg>
