<svg width="24" height="24" viewBox="0 0 24 24" fill="none" xmlns="http://www.w3.org/2000/svg">
<path fill-rule="evenodd" clip-rule="evenodd" d="M5.33874 18H18C20.2091 18 22 16.2091 22 14C22 11.7909 20.2091 10 18 10C17.4064 10 16.8091 10.0829 16.2182 10.1307L15.6616 8.7834C14.9851 7.14613 13.3741 6 11.5 6C9.37234 6 7.58515 7.47856 7.1188 9.46643L6.77814 10.9185L5.28921 11.0062C3.4553 11.1142 2 12.6379 2 14.5C2 16.4037 3.5004 17.8343 5.33874 18ZM17.51 8.01972C16.5352 5.66029 14.2115 4 11.5 4C8.42297 4 5.84532 6.13808 5.17166 9.00964C2.28695 9.17948 0 11.5727 0 14.5C0 17.369 2.19675 19.7474 5 20H18C21.3137 20 24 17.3137 24 14C24 10.6863 21.3137 8 18 8C17.835 8 17.6716 8.00666 17.51 8.01972Z" fill="black"/>
</svg>
