<svg width="24" height="24" viewBox="0 0 24 24" fill="none" xmlns="http://www.w3.org/2000/svg">
<path fill-rule="evenodd" clip-rule="evenodd" d="M12 19C10.8184 19 9.7052 18.7072 8.72894 18.1903C7.94426 18.7024 7.00689 19 6 19C3.23858 19 1 16.7614 1 14C1 11.35 3.06162 9.18144 5.6685 9.01082C6.78975 6.64004 9.20335 5 12 5C14.7967 5 17.2102 6.64004 18.3315 9.01082C20.9384 9.18144 23 11.35 23 14C23 16.7614 20.7614 19 18 19C16.9931 19 16.0557 18.7024 15.2711 18.1903C14.2948 18.7072 13.1816 19 12 19ZM17.0507 16.8467C16.3899 16.6264 15.8314 16.1826 15.4649 15.6048C14.9839 16.0672 14.4106 16.4343 13.7754 16.6756C13.2237 16.8852 12.6252 17 12 17C11.3748 17 10.7763 16.8852 10.2246 16.6756C9.58938 16.4343 9.01609 16.0672 8.53512 15.6048C8.16863 16.1826 7.61009 16.6264 6.94929 16.8467C6.65095 16.9461 6.33177 17 6 17C4.34315 17 3 15.6569 3 14C3 12.6749 3.85909 11.5505 5.05069 11.1533C5.34904 11.0539 5.66823 11 6 11C6.37489 11 6.73372 11.0688 7.06456 11.1944C7.17453 10.5155 7.42119 9.88245 7.77538 9.32437C8.66209 7.92725 10.2228 7 12 7C13.7772 7 15.3379 7.92725 16.2246 9.32437C16.5788 9.88245 16.8255 10.5155 16.9354 11.1944C17.2663 11.0688 17.6251 11 18 11C18.3318 11 18.651 11.0539 18.9493 11.1533C20.1409 11.5505 21 12.6749 21 14C21 15.6569 19.6569 17 18 17C17.6682 17 17.349 16.9461 17.0507 16.8467Z" fill="black"/>
</svg>
