<svg width="24" height="24" viewBox="0 0 24 24" fill="none" xmlns="http://www.w3.org/2000/svg">
<path fill-rule="evenodd" clip-rule="evenodd" d="M18.3991 10.5143L19.359 8.83045C19.1111 8.25665 18.7975 7.71699 18.4274 7.22106L16.4916 7.21043C15.4316 7.20461 14.4534 6.63981 13.9183 5.72472L15.6449 4.71522C15.8232 5.02025 16.1493 5.20852 16.5026 5.21046L18.9322 5.2238C19.2097 5.22533 19.4761 5.34045 19.6551 5.5525C20.4109 6.44761 21.0122 7.47727 21.4182 8.60043C21.5126 8.8615 21.479 9.14988 21.3416 9.39105L20.1366 11.5048C19.9617 11.8117 19.9617 12.1883 20.1366 12.4952L18.3991 13.4857C17.8742 12.5648 17.8742 11.4352 18.3991 10.5143ZM3.88503 12.4952C4.06001 12.1883 4.06001 11.8117 3.88503 11.5048L2.68017 9.39116C2.54269 9.15 2.50918 8.86163 2.60354 8.60056C3.0095 7.47735 3.61089 6.44764 4.36667 5.5525C4.54571 5.34045 4.8121 5.22533 5.08963 5.2238L7.51904 5.21046C7.87238 5.20852 8.19847 5.02025 8.37682 4.71522L9.60413 2.61616C9.74446 2.37616 9.9779 2.20283 10.2516 2.15425C10.8228 2.05288 11.4106 2 12.0109 2C12.6111 2 13.1989 2.05288 13.77 2.15422C14.0438 2.2028 14.2772 2.37614 14.4175 2.61613L15.6449 4.71522L13.9183 5.72472L12.9411 4.05331C12.6365 4.01814 12.3262 4 12.0109 4C11.6956 4 11.3852 4.01815 11.0806 4.05332L10.1034 5.72472C9.5683 6.63981 8.59004 7.20461 7.53003 7.21043L5.59438 7.22106C5.22424 7.71703 4.91066 8.25672 4.66273 8.83056L5.62254 10.5143C6.14751 11.4352 6.14751 12.5648 5.62254 13.4857L3.88503 12.4952ZM4.66273 15.1694L5.62254 13.4857L3.88503 12.4952L2.68017 14.6088C2.54269 14.85 2.50918 15.1384 2.60354 15.3994C3.0095 16.5227 3.6109 17.5524 4.36667 18.4475C4.54571 18.6596 4.8121 18.7747 5.08963 18.7762L7.51904 18.7895C7.87238 18.7915 8.19847 18.9797 8.37682 19.2848L9.60414 21.3838C9.74446 21.6238 9.9779 21.7972 10.2516 21.8458C10.8228 21.9471 11.4106 22 12.0109 22C12.6111 22 13.1989 21.9471 13.77 21.8458C14.0438 21.7972 14.2772 21.6239 14.4175 21.3839L15.6449 19.2848C15.8232 18.9797 16.1493 18.7915 16.5026 18.7895L18.9322 18.7762C19.2097 18.7747 19.4761 18.6596 19.6551 18.4475C20.4109 17.5524 21.0122 16.5227 21.4182 15.3996C21.5126 15.1385 21.479 14.8501 21.3416 14.609L20.1366 12.4952L18.3991 13.4857L19.359 15.1695C19.1111 15.7434 18.7975 16.283 18.4274 16.7789L16.4916 16.7896C15.4316 16.7954 14.4534 17.3602 13.9183 18.2753L12.941 19.9467C12.6365 19.9819 12.3262 20 12.0109 20C11.6956 20 11.3852 19.9819 11.0806 19.9467L10.1034 18.2753C9.5683 17.3602 8.59004 16.7954 7.53002 16.7896L5.59439 16.7789C5.22424 16.283 4.91066 15.7433 4.66273 15.1694Z" fill="black"/>
<path fill-rule="evenodd" clip-rule="evenodd" d="M12 14C13.1046 14 14 13.1046 14 12C14 10.8954 13.1046 10 12 10C10.8954 10 10 10.8954 10 12C10 13.1046 10.8954 14 12 14ZM12 16C14.2091 16 16 14.2091 16 12C16 9.79086 14.2091 8 12 8C9.79086 8 8 9.79086 8 12C8 14.2091 9.79086 16 12 16Z" fill="black"/>
</svg>
