<svg width="24" height="24" viewBox="0 0 24 24" fill="none" xmlns="http://www.w3.org/2000/svg">
<path fill-rule="evenodd" clip-rule="evenodd" d="M13.3948 6.04771L13.19 4H10.81L10.6052 6.04771L9.54862 6.52145C9.17233 6.69017 8.81605 6.89686 8.48473 7.1369L7.54563 7.81731L5.66684 6.96942L4.47681 9.0306L6.14827 10.2321L6.03119 11.3832C6.01062 11.5854 6.00002 11.7911 6.00002 12C6.00002 12.2089 6.01062 12.4146 6.03119 12.6169L6.14827 13.7679L4.47681 14.9694L5.66684 17.0306L7.54565 16.1827L8.48474 16.8631C8.81605 17.1031 9.17233 17.3098 9.54863 17.4785L10.6052 17.9523L10.81 20H13.19L13.3948 17.9523L14.4514 17.4785C14.8277 17.3098 15.184 17.1031 15.5153 16.8631L16.4544 16.1827L18.3332 17.0306L19.5232 14.9694L17.8518 13.7679L17.9689 12.6169C17.9894 12.4146 18 12.2089 18 12C18 11.7911 17.9894 11.5854 17.9689 11.3832L17.8518 10.2321L19.5232 9.0306L18.3332 6.96942L16.4544 7.81731L15.5153 7.13691C15.184 6.89686 14.8277 6.69018 14.4514 6.52145L13.3948 6.04771ZM15.2697 4.6965L15.0901 2.9005C15.0389 2.38929 14.6088 2 14.095 2H9.90501C9.39126 2 8.96109 2.3893 8.90997 2.9005L8.73037 4.6965C8.22771 4.92188 7.75254 5.19763 7.3113 5.51732L5.66465 4.7742C5.19638 4.56287 4.64416 4.74075 4.38728 5.18568L2.29227 8.81434C2.03539 9.25927 2.15745 9.82645 2.5746 10.1263L4.04145 11.1808C4.01406 11.4501 4.00002 11.7234 4.00002 12C4.00002 12.2766 4.01406 12.5499 4.04146 12.8192L2.5746 13.8737C2.15745 14.1736 2.03539 14.7408 2.29227 15.1857L4.38728 18.8143C4.64416 19.2593 5.19638 19.4372 5.66465 19.2258L7.31131 18.4827C7.75255 18.8024 8.22771 19.0781 8.73037 19.3035L8.90997 21.0995C8.96109 21.6107 9.39126 22 9.90501 22H14.095C14.6088 22 15.039 21.6107 15.0901 21.0995L15.2697 19.3035C15.7723 19.0781 16.2475 18.8024 16.6887 18.4827L18.3354 19.2258C18.8037 19.4372 19.3559 19.2593 19.6128 18.8143L21.7078 15.1857C21.9647 14.7408 21.8426 14.1736 21.4255 13.8737L19.9586 12.8192C19.986 12.5499 20 12.2766 20 12C20 11.7234 19.986 11.4501 19.9586 11.1808L21.4255 10.1263C21.8426 9.82645 21.9647 9.25927 21.7078 8.81434L19.6128 5.18568C19.3559 4.74075 18.8037 4.56287 18.3354 4.7742L16.6887 5.51732C16.2475 5.19763 15.7723 4.92188 15.2697 4.6965ZM12 11C11.4477 11 11 11.4477 11 12C11 12.5523 11.4477 13 12 13C12.5523 13 13 12.5523 13 12C13 11.4477 12.5523 11 12 11ZM15 12C15 13.6569 13.6569 15 12 15C10.3432 15 9.00002 13.6569 9.00002 12C9.00002 10.3431 10.3432 9 12 9C13.6569 9 15 10.3431 15 12Z" fill="black"/>
</svg>
