<svg width="24" height="24" viewBox="0 0 24 24" fill="none" xmlns="http://www.w3.org/2000/svg">
<path fill-rule="evenodd" clip-rule="evenodd" d="M4.56145 13.6747L12 20.7626L19.4386 13.6747C21.5205 11.6909 21.5205 8.43264 19.4386 6.44884C17.4167 4.52225 13.933 4.50151 12 6.5859C10.067 4.50151 6.58334 4.52225 4.56145 6.44884C2.47952 8.43264 2.47952 11.6909 4.56145 13.6747ZM13.5147 7.89677C14.7696 6.70108 16.804 6.70108 18.0589 7.89677C19.3137 9.09245 19.3137 11.031 18.0589 12.2267L12 18L5.94113 12.2267C4.68629 11.031 4.68629 9.09245 5.94113 7.89677C7.19596 6.70108 9.23045 6.70108 10.4853 7.89677C11.1225 8.50392 11.7454 10.6451 12 10.6451C12.2546 10.6451 12.8775 8.50392 13.5147 7.89677Z" fill="black"/>
</svg>
