<svg width="24" height="24" viewBox="0 0 24 24" fill="none" xmlns="http://www.w3.org/2000/svg">
<path fill-rule="evenodd" clip-rule="evenodd" d="M12 9.96846L9.89217 7.84543C8.77301 6.71819 6.96447 6.71819 5.84531 7.84543C4.71823 8.98063 4.71823 10.8271 5.84531 11.9623L12 18.1614L18.1547 11.9623C19.2818 10.8271 19.2818 8.98063 18.1547 7.84543C17.0355 6.71819 15.227 6.71819 14.1078 7.84543L12 9.96846ZM12 21L4.42602 13.3714C2.52466 11.4563 2.52466 8.35138 4.42602 6.4363C6.25587 4.59326 9.17988 4.52394 11.092 6.22835C11.092 6.22835 11.7001 6.82779 12 7.12981C12.2999 6.82779 12.908 6.22835 12.908 6.22835C14.8201 4.52394 17.7441 4.59326 19.574 6.4363C21.4753 8.35138 21.4753 11.4563 19.574 13.3714L12 21Z" fill="black"/>
</svg>
