<svg width="24" height="24" viewBox="0 0 24 24" fill="none" xmlns="http://www.w3.org/2000/svg">
<path fill-rule="evenodd" clip-rule="evenodd" d="M12 2.04141C12.3328 2.04141 12.6166 2.19932 12.8439 2.42967C12.8459 2.43165 12.8485 2.43431 12.8485 2.43431L19.7051 9.29091L19.7091 9.29485L22.7071 12.2929C23.0976 12.6834 23.0976 13.3166 22.7071 13.7071C22.3166 14.0976 21.6834 14.0976 21.2929 13.7071L20 12.4142V19.9C20 20.5075 19.5075 21 18.9 21H5.1C4.49249 21 4 20.5075 4 19.9V12.4142L2.70711 13.7071C2.31658 14.0976 1.68342 14.0976 1.29289 13.7071C0.902369 13.3166 0.902369 12.6834 1.29289 12.2929L11.1515 2.43431C11.1515 2.43431 11.1541 2.43165 11.1561 2.42967C11.3834 2.19932 11.6672 2.04141 12 2.04141ZM6 10.4142V19H18V10.4142L12 4.4142L6 10.4142ZM11 12V9.99999C11 9.4477 11.4477 8.99999 12 8.99999C12.5523 8.99999 13 9.4477 13 9.99999V12H15C15.5523 12 16 12.4477 16 13C16 13.5523 15.5523 14 15 14H13V16C13 16.5523 12.5523 17 12 17C11.4477 17 11 16.5523 11 16V14H9C8.44772 14 8 13.5523 8 13C8 12.4477 8.44772 12 9 12H11Z" fill="black"/>
</svg>
