<svg width="24" height="24" viewBox="0 0 24 24" fill="none" xmlns="http://www.w3.org/2000/svg">
<path d="M12 8.99998C12.5523 8.99998 13 9.4477 13 9.99998V12H15C15.5523 12 16 12.4477 16 13C16 13.5523 15.5523 14 15 14H13V16C13 16.5523 12.5523 17 12 17C11.4477 17 11 16.5523 11 16V14H9C8.44772 14 8 13.5523 8 13C8 12.4477 8.44772 12 9 12H11V9.99998C11 9.4477 11.4477 8.99998 12 8.99998Z" fill="black"/>
<path fill-rule="evenodd" clip-rule="evenodd" d="M10.8621 3.34447C11.5467 2.87077 12.4533 2.87077 13.1379 3.34447L20.2759 8.28296C21.3557 9.03001 22.0001 10.2594 22.0001 11.5724V17C22.0001 19.2091 20.2092 21 18.0001 21H6C3.79086 21 2 19.2091 2 17V11.5724C2 10.2594 2.64438 9.03002 3.72414 8.28296L10.8621 3.34447ZM19.138 9.92769L12 4.9892L4.86207 9.92769C4.32219 10.3012 4 10.9159 4 11.5724V17C4 18.1046 4.89543 19 6 19H18.0001C19.1046 19 20.0001 18.1046 20.0001 17V11.5724C20.0001 10.9159 19.6779 10.3012 19.138 9.92769Z" fill="black"/>
</svg>
