<svg width="24" height="24" viewBox="0 0 24 24" fill="none" xmlns="http://www.w3.org/2000/svg">
<path fill-rule="evenodd" clip-rule="evenodd" d="M13.1379 3.34447C12.4533 2.87077 11.5467 2.87077 10.8621 3.34447L3.72414 8.28296C2.64438 9.03002 2 10.2594 2 11.5724V17C2 19.2091 3.79086 21 6 21H18.0001C20.2092 21 22.0001 19.2091 22.0001 17V11.5724C22.0001 10.2594 21.3557 9.03001 20.2759 8.28296L13.1379 3.34447ZM16 19H18.0001C19.1046 19 20.0001 18.1046 20.0001 17V11.5724C20.0001 10.9159 19.6779 10.3012 19.138 9.92769L12 4.9892L4.86207 9.92769C4.32219 10.3012 4 10.9159 4 11.5724V17C4 18.1046 4.89543 19 6 19H8V14C8 12.3431 9.34315 11 11 11H13C14.6569 11 16 12.3431 16 14V19ZM10 19H14V14C14 13.4477 13.5523 13 13 13H11C10.4477 13 10 13.4477 10 14V19Z" fill="black"/>
</svg>
