<svg width="24" height="24" viewBox="0 0 24 24" fill="none" xmlns="http://www.w3.org/2000/svg">
<path d="M10.5858 10.1716C10.1953 9.78103 9.56211 9.78103 9.17159 10.1716C8.78106 10.5621 8.78106 11.1952 9.17159 11.5858L10.5858 13L9.17159 14.4142C8.78106 14.8047 8.78106 15.4379 9.17159 15.8284C9.56211 16.2189 10.1953 16.2189 10.5858 15.8284L12 14.4142L13.4142 15.8284C13.8048 16.2189 14.4379 16.2189 14.8284 15.8284C15.219 15.4379 15.219 14.8047 14.8284 14.4142L13.4142 13L14.8284 11.5858C15.219 11.1953 15.219 10.5621 14.8284 10.1716C14.4379 9.78104 13.8047 9.78104 13.4142 10.1716L12 11.5858L10.5858 10.1716Z" fill="black"/>
<path fill-rule="evenodd" clip-rule="evenodd" d="M12.8485 2.43431L12.8439 2.42967C12.6166 2.19932 12.3328 2.04141 12 2.04141C11.6672 2.04141 11.3834 2.19932 11.156 2.42968L11.1515 2.43431L1.29289 12.2929C0.902369 12.6834 0.902369 13.3166 1.29289 13.7071C1.68342 14.0976 2.31658 14.0976 2.70711 13.7071L4 12.4142V19.9C4 20.5075 4.49249 21 5.1 21H18.9C19.5075 21 20 20.5075 20 19.9V12.4142L21.2929 13.7071C21.6834 14.0976 22.3166 14.0976 22.7071 13.7071C23.0976 13.3166 23.0976 12.6834 22.7071 12.2929L12.8485 2.43431ZM18 10.4142L12 4.4142L6 10.4142V19H18V10.4142Z" fill="black"/>
</svg>
