<svg width="24" height="24" viewBox="0 0 24 24" fill="none" xmlns="http://www.w3.org/2000/svg">
<path fill-rule="evenodd" clip-rule="evenodd" d="M20 12.4142L21.2929 13.7071C21.6834 14.0976 22.3166 14.0976 22.7071 13.7071C23.0976 13.3166 23.0976 12.6834 22.7071 12.2929L12.8485 2.43431L12.8439 2.42967C12.6166 2.19932 12.3328 2.04141 12 2.04141C11.6672 2.04141 11.3834 2.19932 11.156 2.42968L11.1515 2.43431L1.29289 12.2929C0.902369 12.6834 0.902369 13.3166 1.29289 13.7071C1.68342 14.0976 2.31658 14.0976 2.70711 13.7071L4 12.4142V19.9C4 20.5075 4.49249 21 5.1 21H18.9C19.5075 21 20 20.5075 20 19.9V12.4142ZM18 10.4142L12 4.4142L6 10.4142V19H18V10.4142Z" fill="black"/>
</svg>
