<svg width="24" height="24" viewBox="0 0 24 24" fill="none" xmlns="http://www.w3.org/2000/svg">
<path fill-rule="evenodd" clip-rule="evenodd" d="M12 2.04141C12.3328 2.04141 12.6166 2.19932 12.8439 2.42967C12.8459 2.43165 12.8485 2.43431 12.8485 2.43431L19.7051 9.29091L19.7091 9.29485L22.7071 12.2929C23.0976 12.6834 23.0976 13.3166 22.7071 13.7071C22.3166 14.0976 21.6834 14.0976 21.2929 13.7071L20 12.4142V19.9C20 20.5075 19.5075 21 18.9 21H5.1C4.49249 21 4 20.5075 4 19.9V12.4142L2.70711 13.7071C2.31658 14.0976 1.68342 14.0976 1.29289 13.7071C0.902369 13.3166 0.902369 12.6834 1.29289 12.2929L11.1515 2.43431C11.1515 2.43431 11.1541 2.43165 11.1561 2.42967C11.3834 2.19932 11.6672 2.04141 12 2.04141ZM6 10.4142V19H9V13.1C9 12.4925 9.49249 12 10.1 12H13.9C14.5075 12 15 12.4925 15 13.1V19H18V10.4142L12 4.4142L6 10.4142ZM13 19V14H11V19H13Z" fill="black"/>
</svg>
