<svg width="24" height="24" viewBox="0 0 24 24" fill="none" xmlns="http://www.w3.org/2000/svg">
<path d="M9.29289 10.2929C9.68342 9.90235 10.3166 9.90235 10.7071 10.2929L12 11.5858L13.2929 10.2929C13.6834 9.90235 14.3166 9.90235 14.7071 10.2929C15.0977 10.6834 15.0977 11.3166 14.7071 11.7071L13.4142 13L14.7071 14.2929C15.0976 14.6834 15.0976 15.3166 14.7071 15.7071C14.3166 16.0976 13.6834 16.0976 13.2929 15.7071L12 14.4142L10.7071 15.7071C10.3166 16.0976 9.68345 16.0976 9.29292 15.7071C8.9024 15.3166 8.9024 14.6834 9.29292 14.2929L10.5858 13L9.29289 11.7071C8.90237 11.3166 8.90237 10.6834 9.29289 10.2929Z" fill="black"/>
<path fill-rule="evenodd" clip-rule="evenodd" d="M10.8621 3.34447C11.5467 2.87077 12.4533 2.87077 13.1379 3.34447L20.2759 8.28296C21.3557 9.03001 22.0001 10.2594 22.0001 11.5724V17C22.0001 19.2091 20.2092 21 18.0001 21H6C3.79086 21 2 19.2091 2 17V11.5724C2 10.2594 2.64438 9.03002 3.72414 8.28296L10.8621 3.34447ZM19.138 9.92769L12 4.9892L4.86207 9.92769C4.32219 10.3012 4 10.9159 4 11.5724V17C4 18.1046 4.89543 19 6 19H18.0001C19.1046 19 20.0001 18.1046 20.0001 17V11.5724C20.0001 10.9159 19.6779 10.3012 19.138 9.92769Z" fill="black"/>
</svg>
