<svg width="24" height="24" viewBox="0 0 24 24" fill="none" xmlns="http://www.w3.org/2000/svg">
<path fill-rule="evenodd" clip-rule="evenodd" d="M5 3C5 2.44772 5.44772 2 6 2H18C18.5523 2 19 2.44772 19 3C19 3.55228 18.5523 4 18 4V5.75736C18 6.81822 17.5786 7.83564 16.8284 8.58579L13.4142 12L16.8284 15.4142C17.5786 16.1644 18 17.1818 18 18.2426V20C18.5523 20 19 20.4477 19 21C19 21.5523 18.5523 22 18 22H6C5.44772 22 5 21.5523 5 21C5 20.4477 5.44772 20 6 20V18.2426C6 17.1818 6.42143 16.1644 7.17157 15.4142L10.5858 12L7.17157 8.58578C6.42143 7.83564 6 6.81822 6 5.75736V4C5.44772 4 5 3.55228 5 3ZM8 4V5.75736C8 6.75453 8.76961 7.3554 9.41421 8H14.5858C15.2304 7.3554 16 6.75453 16 5.75736V4H8ZM8.01477 18H15.9852C15.9313 17.559 15.7316 17.1458 15.4142 16.8284L12 13.4142L8.58578 16.8284C8.26836 17.1459 8.06866 17.559 8.01477 18Z" fill="black"/>
</svg>
