<svg width="24" height="24" viewBox="0 0 24 24" fill="none" xmlns="http://www.w3.org/2000/svg">
<path fill-rule="evenodd" clip-rule="evenodd" d="M7.96759 1C6.88118 1 5.92113 1.89806 6.00513 3.07296C6.3106 7.34575 8.43914 9.84726 10.557 12C8.43914 14.1527 6.3106 16.6542 6.00513 20.927C5.92113 22.1019 6.88118 23 7.96759 23H15.9676C17.054 23 18.014 22.1019 17.93 20.927C17.6246 16.6542 15.496 14.1527 13.3782 12C15.496 9.84726 17.6246 7.34575 17.93 3.07296C18.014 1.89806 17.054 1 15.9676 1H7.96759ZM14.1763 8C15.1091 6.64247 15.7693 5.07954 15.93 3H8.00522C8.16587 5.07954 8.82605 6.64247 9.75891 8H14.1763ZM8.68021 18C9.40428 16.1794 10.6099 14.8032 11.9676 13.419C13.3253 14.8032 14.5309 16.1794 15.255 18H8.68021Z" fill="black"/>
</svg>
