<svg width="24" height="24" viewBox="0 0 24 24" fill="none" xmlns="http://www.w3.org/2000/svg">
<path fill-rule="evenodd" clip-rule="evenodd" d="M15.7998 13.2001C16.6264 13.2001 17.4007 13.001 18.0829 12.65C19.7875 11.7729 21.8842 13.6155 20.7966 15.4977C19.2441 18.1847 16.3352 20 12.9998 20C8.02936 20 4 15.9706 4 11.0002C4 7.66484 5.81537 4.75588 8.50234 3.20333C10.3846 2.11575 12.2271 4.21254 11.35 5.91708C10.999 6.5993 10.7999 7.37361 10.7999 8.20024C10.7999 10.9616 13.0384 13.2001 15.7998 13.2001ZM7.96588 6.13632C8.41064 5.6761 8.91793 5.2767 9.47407 4.95181C9.53908 4.91383 9.60116 4.94386 9.55755 5.02956C9.06108 6.00503 8.78662 7.11863 8.80045 8.2849C8.84547 12.0836 11.9164 15.1545 15.7151 15.1996C16.8814 15.2134 17.995 14.9389 18.9704 14.4425C19.0382 14.408 19.0961 14.4439 19.0482 14.526C18.7233 15.0821 18.3239 15.5894 17.8637 16.0342C17.3931 16.4889 16.859 16.8783 16.2759 17.1877C15.2984 17.7062 14.1834 18 12.9998 18C9.13393 18 6 14.8661 6 11.0002C6 9.11048 6.7488 7.39569 7.96588 6.13632Z" fill="black"/>
</svg>
