<svg width="24" height="24" viewBox="0 0 24 24" fill="none" xmlns="http://www.w3.org/2000/svg">
<path d="M5.59288 9.02715L6.81502 8.8624L7.21664 7.69643C7.75805 6.12466 9.25027 5 11 5C12.5153 5 13.8369 5.84182 14.5173 7.09277L15.2411 8.42339L16.7181 8.08722C16.9676 8.03042 17.229 8 17.5 8C19.433 8 21 9.567 21 11.5C21 13.3246 19.6023 14.8251 17.8205 14.9857L17.6613 15H16.5783L16.0424 17H18V16.9776C20.8032 16.725 23 14.369 23 11.5C23 8.46243 20.5376 6 17.5 6C17.0787 6 16.6684 6.04738 16.2742 6.13709C15.2577 4.26836 13.277 3 11 3C8.37075 3 6.13649 4.69118 5.32568 7.04508C2.88316 7.37436 1 9.46726 1 12C1 14.6581 3.07411 16.8317 5.69217 16.9907L6.22557 15H6C4.34315 15 3 13.6569 3 12C3 10.482 4.12933 9.22445 5.59288 9.02715Z" fill="black"/>
<path d="M9.85884 12.6357C10.3923 12.7786 10.7089 13.327 10.5659 13.8604L10.2036 15.2127C10.0607 15.7462 9.51232 16.0628 8.97886 15.9198C8.44539 15.7769 8.12881 15.2286 8.27175 14.6951L8.6341 13.3428C8.77704 12.8093 9.32538 12.4928 9.85884 12.6357Z" fill="black"/>
<path d="M8.40945 18.0449C8.94292 18.1878 9.2595 18.7362 9.11656 19.2696L8.75421 20.6219C8.61127 21.1554 8.06294 21.472 7.52947 21.329C6.996 21.1861 6.67942 20.6378 6.82236 20.1043L7.18471 18.752C7.32765 18.2185 7.87599 17.9019 8.40945 18.0449Z" fill="black"/>
<path d="M14.8036 13.8957C14.9466 13.3623 14.63 12.8139 14.0965 12.671C13.563 12.528 13.0147 12.8446 12.8718 13.3781L12.5094 14.7304C12.3665 15.2638 12.6831 15.8122 13.2165 15.9551C13.75 16.0981 14.2983 15.7815 14.4413 15.248L14.8036 13.8957Z" fill="black"/>
<path d="M13.3542 19.3049C13.4972 18.7714 13.1806 18.2231 12.6471 18.0802C12.1137 17.9372 11.5653 18.2538 11.4224 18.7873L11.06 20.1396C10.9171 20.673 11.2337 21.2214 11.7671 21.3643C12.3006 21.5073 12.8489 21.1907 12.9919 20.6572L13.3542 19.3049Z" fill="black"/>
</svg>
