<svg width="24" height="24" viewBox="0 0 24 24" fill="none" xmlns="http://www.w3.org/2000/svg">
<path fill-rule="evenodd" clip-rule="evenodd" d="M8.78605 9.01978C8.97295 9.00479 9.13575 8.88651 9.20776 8.71339L11.5384 3.10997C11.7091 2.69933 12.2909 2.69932 12.4617 3.10997L14.7923 8.71339C14.8643 8.88651 15.0271 9.00479 15.214 9.01978L21.2633 9.50475C21.7067 9.54029 21.8864 10.0935 21.5487 10.3829L16.9397 14.331C16.7973 14.4529 16.7351 14.6443 16.7786 14.8267L18.1867 20.7299C18.2899 21.1625 17.8193 21.5044 17.4397 21.2726L12.2606 18.1092C12.1006 18.0115 11.8994 18.0115 11.7394 18.1092L6.56029 21.2726C6.18074 21.5044 5.71011 21.1625 5.8133 20.7299L7.22142 14.8267C7.26493 14.6443 7.20274 14.4529 7.06035 14.331L2.45137 10.3829C2.1136 10.0935 2.29336 9.54029 2.73669 9.50475L8.78605 9.01978ZM12 16.0359C12.4516 16.0359 12.9031 16.1581 13.3031 16.4024L15.4045 17.6859L14.8332 15.2908C14.6157 14.3789 14.9266 13.4219 15.6386 12.812L17.5086 11.2102L15.0541 11.0134C14.1197 10.9385 13.3056 10.347 12.9456 9.48145L12 7.20793V16.0359Z" fill="black"/>
</svg>
