<svg width="24" height="24" viewBox="0 0 24 24" fill="none" xmlns="http://www.w3.org/2000/svg">
<path fill-rule="evenodd" clip-rule="evenodd" d="M9.20776 8.71339C9.13575 8.88651 8.97295 9.00479 8.78605 9.01978L2.73669 9.50475C2.29336 9.54029 2.1136 10.0935 2.45137 10.3829L7.06035 14.331C7.20274 14.4529 7.26493 14.6443 7.22142 14.8267L5.8133 20.7299C5.71011 21.1625 6.18074 21.5044 6.56029 21.2726L11.7394 18.1092C11.8994 18.0115 12.1006 18.0115 12.2606 18.1092L17.4397 21.2726C17.8193 21.5044 18.2899 21.1625 18.1867 20.7299L16.7786 14.8267C16.7351 14.6443 16.7973 14.4529 16.9397 14.331L21.5487 10.3829C21.8864 10.0935 21.7067 9.54029 21.2633 9.50475L15.214 9.01978C15.0271 9.00479 14.8643 8.88651 14.7923 8.71339L12.4617 3.10997C12.2909 2.69932 11.7091 2.69933 11.5384 3.10997L9.20776 8.71339ZM12 7.20793L11.0544 9.48145C10.6944 10.347 9.88035 10.9385 8.94588 11.0134L6.49142 11.2102L8.36146 12.812C9.07343 13.4219 9.38436 14.3789 9.16684 15.2908L8.59551 17.6859L10.6969 16.4024C11.4969 15.9137 12.5031 15.9137 13.3031 16.4024L15.4045 17.6859L14.8332 15.2908C14.6157 14.3789 14.9266 13.4219 15.6386 12.812L17.5086 11.2102L15.0541 11.0134C14.1197 10.9385 13.3056 10.347 12.9456 9.48145L12 7.20793Z" fill="black"/>
</svg>
