<svg width="24" height="24" viewBox="0 0 24 24" fill="none" xmlns="http://www.w3.org/2000/svg">
<path fill-rule="evenodd" clip-rule="evenodd" d="M10.6549 2.72548L8.52837 7.03423C8.30987 7.47694 7.88752 7.7838 7.39896 7.85479L2.64397 8.54573C1.41364 8.72451 0.922378 10.2365 1.81265 11.1043L5.25339 14.4582C5.60692 14.8028 5.76825 15.2993 5.68479 15.7859L4.87254 20.5216C4.66237 21.747 5.94852 22.6814 7.04896 22.1029L11.302 19.867C11.7389 19.6372 12.261 19.6372 12.698 19.867L16.951 22.1029C18.0514 22.6814 19.3376 21.747 19.1274 20.5216L18.3151 15.7859C18.2317 15.2993 18.393 14.8028 18.7465 14.4582L22.1873 11.1043C23.0776 10.2365 22.5863 8.72451 21.356 8.54573L16.601 7.85479C16.1124 7.7838 15.6901 7.47694 15.4716 7.03423L13.3451 2.72548C12.7948 1.61061 11.2051 1.61061 10.6549 2.72548ZM12 17.6947V4.51918L13.6781 7.91936C14.1879 8.95236 15.1734 9.66835 16.3134 9.834L20.0658 10.3793L17.3505 13.026C16.5256 13.8301 16.1492 14.9886 16.3439 16.1239L16.9849 19.8612L13.6287 18.0967C13.1189 17.8287 12.5594 17.6947 12 17.6947Z" fill="black"/>
</svg>
