<svg width="24" height="24" viewBox="0 0 24 24" fill="none" xmlns="http://www.w3.org/2000/svg">
<path d="M14.0576 18.0804C13.9808 18.0549 13.9808 17.9451 14.0576 17.9196C17.4634 16.793 16.793 17.4634 17.9196 14.0576C17.9451 13.9808 18.0549 13.9808 18.0804 14.0576C19.207 17.4634 18.5366 16.793 21.9424 17.9196C22.0192 17.9451 22.0192 18.0549 21.9424 18.0804C18.5366 19.207 19.207 18.5366 18.0804 21.9424C18.0549 22.0192 17.9451 22.0192 17.9196 21.9424C16.793 18.5366 17.4634 19.207 14.0576 18.0804Z" fill="black"/>
<path d="M14.0576 6.08036C13.9808 6.05494 13.9808 5.94506 14.0576 5.91964C17.4634 4.793 16.793 5.46338 17.9196 2.05762C17.9451 1.98079 18.0549 1.98079 18.0804 2.05762C19.207 5.46338 18.5366 4.793 21.9424 5.91964C22.0192 5.94506 22.0192 6.05494 21.9424 6.08036C18.5366 7.207 19.207 6.53662 18.0804 9.94238C18.0549 10.0192 17.9451 10.0192 17.9196 9.94238C16.793 6.53662 17.4634 7.207 14.0576 6.08036Z" fill="black"/>
<path d="M2.10084 12.1406C1.96639 12.0961 1.96639 11.9039 2.10084 11.8594C8.06091 9.88775 6.88773 11.0609 8.85937 5.10084C8.90385 4.96639 9.09615 4.96639 9.14062 5.10084C11.1122 11.0609 9.93907 9.88775 15.8992 11.8594C16.0336 11.9039 16.0336 12.0961 15.8992 12.1406C9.93907 14.1123 11.1122 12.9391 9.14062 18.8992C9.09615 19.0336 8.90385 19.0336 8.85937 18.8992C6.88773 12.9391 8.06091 14.1123 2.10084 12.1406Z" fill="black"/>
</svg>
