<svg width="24" height="24" viewBox="0 0 24 24" fill="none" xmlns="http://www.w3.org/2000/svg">
<path d="M11.5516 3.16804C11.735 2.79642 12.2649 2.79642 12.4483 3.16805L14.5748 7.47679C14.939 8.21465 15.6429 8.72608 16.4572 8.8444L21.2122 9.53534C21.6223 9.59493 21.786 10.0989 21.4893 10.3882L18.0485 13.7421C17.4593 14.3164 17.1904 15.1439 17.3295 15.9549L18.3151 15.7859L17.3295 15.9549L18.1418 20.6907C18.2118 21.0991 17.7831 21.4106 17.4163 21.2178L13.1633 18.9818C12.435 18.5989 11.5649 18.5989 10.8366 18.9818L6.58362 21.2178C6.21681 21.4106 5.78809 21.0991 5.85815 20.6907L6.6704 15.9549C6.80949 15.1439 6.54062 14.3164 5.95141 13.7421L2.51067 10.3882C2.21391 10.0989 2.37766 9.59493 2.78777 9.53534L7.54276 8.8444C8.35703 8.72608 9.06095 8.21465 9.4251 7.47679L11.5516 3.16804Z" fill="black" stroke="black" stroke-width="2"/>
</svg>
