<svg width="24" height="24" viewBox="0 0 24 24" fill="none" xmlns="http://www.w3.org/2000/svg">
<path d="M14.0576 18.0804C13.9808 18.0549 13.9808 17.9451 14.0576 17.9196C17.4634 16.793 16.793 17.4634 17.9196 14.0576C17.9451 13.9808 18.0549 13.9808 18.0804 14.0576C19.207 17.4634 18.5366 16.793 21.9424 17.9196C22.0192 17.9451 22.0192 18.0549 21.9424 18.0804C18.5366 19.207 19.207 18.5366 18.0804 21.9424C18.0549 22.0192 17.9451 22.0192 17.9196 21.9424C16.793 18.5366 17.4634 19.207 14.0576 18.0804Z" fill="black"/>
<path d="M14.0576 6.08036C13.9808 6.05494 13.9808 5.94506 14.0576 5.91964C17.4634 4.793 16.793 5.46338 17.9196 2.05762C17.9451 1.98079 18.0549 1.98079 18.0804 2.05762C19.207 5.46338 18.5366 4.793 21.9424 5.91964C22.0192 5.94506 22.0192 6.05494 21.9424 6.08036C18.5366 7.207 19.207 6.53662 18.0804 9.94238C18.0549 10.0192 17.9451 10.0192 17.9196 9.94238C16.793 6.53662 17.4634 7.207 14.0576 6.08036Z" fill="black"/>
<path d="M9.80384 14.7704L10.71 15.1933L9.80384 14.7704L8 18.6354L6.19616 14.7704C5.99749 14.3447 5.65532 14.0025 5.22964 13.8038L1.36456 12L5.22964 10.1962L4.80673 9.28999L5.22964 10.1962C5.65532 9.99749 5.99749 9.65532 6.19616 9.22964L8 5.36456L9.80384 9.22964C10.0025 9.65532 10.3447 9.99749 10.7704 10.1962L14.6354 12L10.7704 13.8038C10.3447 14.0025 10.0025 14.3447 9.80384 14.7704Z" stroke="black" stroke-width="2"/>
</svg>
