<svg width="24" height="24" viewBox="0 0 24 24" fill="none" xmlns="http://www.w3.org/2000/svg">
<path d="M12 14C11.4477 14 11 13.5523 11 13V9C11 8.44772 11.4477 8 12 8C12.5523 8 13 8.44772 13 9V13C13 13.5523 12.5523 14 12 14Z" fill="black"/>
<path fill-rule="evenodd" clip-rule="evenodd" d="M11 1C10.4477 1 10 1.44772 10 2C10 2.55228 10.4477 3 11 3V4.05493C6.50005 4.55237 3 8.36745 3 13C3 17.9706 7.02944 22 12 22C16.9706 22 21 17.9706 21 13C21 10.875 20.2635 8.922 19.0319 7.38233L20.4853 5.92897C20.8758 5.53845 20.8758 4.90528 20.4853 4.51476C20.0948 4.12423 19.4616 4.12423 19.0711 4.51476L17.6177 5.96811C16.3229 4.93238 14.7359 4.24682 13 4.05493V3C13.5523 3 14 2.55228 14 2C14 1.44772 13.5523 1 13 1H11ZM12 20C15.866 20 19 16.866 19 13C19 9.13401 15.866 6 12 6C8.13401 6 5 9.13401 5 13C5 16.866 8.13401 20 12 20Z" fill="black"/>
</svg>
