<svg width="24" height="24" viewBox="0 0 24 24" fill="none" xmlns="http://www.w3.org/2000/svg">
<path d="M1 12C1 11.4477 1.44772 11 2 11H4C4.55229 11 5 11.4477 5 12C5 12.5523 4.55229 13 4 13H2C1.44772 13 1 12.5523 1 12Z" fill="black"/>
<path d="M12 5C11.4477 5 11 4.55228 11 4V2C11 1.44772 11.4477 1 12 1C12.5523 1 13 1.44772 13 2V4C13 4.55228 12.5523 5 12 5Z" fill="black"/>
<path d="M12 23C11.4477 23 11 22.5523 11 22V20C11 19.4477 11.4477 19 12 19C12.5523 19 13 19.4477 13 20V22C13 22.5523 12.5523 23 12 23Z" fill="black"/>
<path d="M19 12C19 11.4477 19.4477 11 20 11H22C22.5523 11 23 11.4477 23 12C23 12.5523 22.5523 13 22 13H20C19.4477 13 19 12.5523 19 12Z" fill="black"/>
<path fill-rule="evenodd" clip-rule="evenodd" d="M17 12C17 14.7614 14.7614 17 12 17C9.23858 17 7 14.7614 7 12C7 9.23858 9.23858 7 12 7C14.7614 7 17 9.23858 17 12ZM12 15C13.6569 15 15 13.6569 15 12C15 10.3431 13.6569 9 12 9C10.3431 9 9 10.3431 9 12C9 13.6569 10.3431 15 12 15Z" fill="black"/>
<path d="M4.22182 18.3639C3.83129 18.7545 3.83129 19.3876 4.22182 19.7782C4.61234 20.1687 5.2455 20.1687 5.63603 19.7782L7.05025 18.3639C7.44077 17.9734 7.44077 17.3402 7.05025 16.9497C6.65972 16.5592 6.02656 16.5592 5.63603 16.9497L4.22182 18.3639Z" fill="black"/>
<path d="M5.63603 7.05024C6.02656 7.44076 6.65972 7.44076 7.05025 7.05024C7.44077 6.65971 7.44077 6.02655 7.05025 5.63602L5.63604 4.22181C5.24551 3.83129 4.61235 3.83129 4.22182 4.22181C3.8313 4.61234 3.8313 5.2455 4.22182 5.63602L5.63603 7.05024Z" fill="black"/>
<path d="M18.364 19.7782C18.7545 20.1687 19.3876 20.1687 19.7782 19.7782C20.1687 19.3876 20.1687 18.7545 19.7782 18.3639L18.364 16.9497C17.9734 16.5592 17.3403 16.5592 16.9497 16.9497C16.5592 17.3403 16.5592 17.9734 16.9497 18.3639L18.364 19.7782Z" fill="black"/>
<path d="M16.9497 5.63602C16.5592 6.02654 16.5592 6.65971 16.9497 7.05023C17.3403 7.44076 17.9734 7.44076 18.364 7.05023L19.7782 5.63602C20.1687 5.24549 20.1687 4.61233 19.7782 4.2218C19.3876 3.83128 18.7545 3.83128 18.364 4.2218L16.9497 5.63602Z" fill="black"/>
</svg>
