<svg width="24" height="24" viewBox="0 0 24 24" fill="none" xmlns="http://www.w3.org/2000/svg">
<path fill-rule="evenodd" clip-rule="evenodd" d="M15.0016 4.5148C15.2696 4.03188 15.8783 3.85763 16.3612 4.1256C19.1255 5.65948 21 8.61014 21 12C21 16.9706 16.9706 21 12 21C7.02944 21 3 16.9706 3 12C3 9.52036 4.00411 7.27332 5.62554 5.64656C6.01542 5.25539 6.64858 5.25435 7.03975 5.64424C7.43091 6.03412 7.43195 6.66728 7.04207 7.05845C5.77904 8.32563 5 10.0709 5 12C5 15.866 8.13401 19 12 19C15.866 19 19 15.866 19 12C19 9.3658 17.5454 7.06997 15.3908 5.8744C14.9079 5.60643 14.7336 4.99771 15.0016 4.5148Z" fill="black"/>
<path fill-rule="evenodd" clip-rule="evenodd" d="M12.7071 12.7071C12.3166 13.0976 11.6834 13.0976 11.2929 12.7071L8.29288 9.7071C7.90236 9.31657 7.90236 8.68341 8.29288 8.29289C8.6834 7.90236 9.31657 7.90236 9.70709 8.29289L12.7071 11.2929C13.0976 11.6834 13.0976 12.3166 12.7071 12.7071Z" fill="black"/>
<path d="M13 4.5C13 5.32843 12.3284 6 11.5 6C10.6716 6 10 5.32843 10 4.5C10 3.67157 10.6716 3 11.5 3C12.3284 3 13 3.67157 13 4.5Z" fill="black"/>
</svg>
