<svg width="24" height="24" viewBox="0 0 24 24" fill="none" xmlns="http://www.w3.org/2000/svg">
<path d="M13 3.5C13 4.32843 12.3284 5 11.5 5C10.6716 5 10 4.32843 10 3.5C10 2.67157 10.6716 2 11.5 2C12.3284 2 13 2.67157 13 3.5Z" fill="black"/>
<path d="M15.1218 4.02832C15.3823 3.54133 15.9882 3.35773 16.4752 3.61823C19.4634 5.2167 21.5 8.36975 21.5 12C21.5 17.2467 17.2467 21.5 12 21.5C6.75329 21.5 2.5 17.2467 2.5 12C2.5 9.38284 3.55962 7.01126 5.27088 5.29411C5.66073 4.90291 6.2939 4.90182 6.68509 5.29168C6.88113 5.48704 7 5.7435 7 6C7 6.25535 6.88201 6.51073 6.68752 6.70589C5.3346 8.06347 4.5 9.93331 4.5 12C4.5 16.1421 7.85786 19.5 12 19.5C16.1421 19.5 19.5 16.1421 19.5 12C19.5 9.13648 17.8955 6.64615 15.5319 5.38177C15.0449 5.12127 14.8613 4.51531 15.1218 4.02832Z" fill="black"/>
<path d="M9.7071 8.29289C9.31658 7.90237 8.68341 7.90237 8.29289 8.2929C7.90237 8.68342 7.90237 9.31659 8.2929 9.70711L11.2929 12.7071C11.6835 13.0976 12.3166 13.0976 12.7071 12.7071C13.0977 12.3166 13.0977 11.6834 12.7071 11.2929L9.7071 8.29289Z" fill="black"/>
</svg>
