<svg width="24" height="24" viewBox="0 0 24 24" fill="none" xmlns="http://www.w3.org/2000/svg">
<path fill-rule="evenodd" clip-rule="evenodd" d="M5.7268 13C5 13 4.57523 13 4 13C2.89543 13 2 13.8954 2 15C2 16.1046 2.89543 17 4 17H13.6413C14.942 16.8562 16 15.858 16 14.5C16 13.1351 14.9059 12.0254 13.5476 12.0004L12.2649 11.9769L11.7515 10.8012C11.2868 9.73723 10.2273 8.99999 9 8.99999C7.55069 8.99999 6.3374 10.0297 6.0599 11.3986L5.7268 13ZM14 18.9725V19H4C1.79086 19 0 17.2091 0 15C0 12.7909 1.79086 11 4 11C3.96684 10.9992 4.03335 11 4 11C4.4628 8.71715 6.58061 6.99999 9 6.99999C11.0506 6.99999 12.8129 8.23445 13.5843 10.0008C16.0307 10.0457 18 12.0429 18 14.5C18 16.8163 16.25 18.7238 14 18.9725Z" fill="black"/>
<path d="M12.7092 6.06241C12.1334 5.70193 11.5013 5.42288 10.8292 5.24142C11.7244 3.89068 13.2582 3.00002 15 3.00002C17.0507 3.00002 18.8129 4.23447 19.5843 6.00079C22.0307 6.04573 24 8.04289 24 10.5C24 12.8163 22.25 14.7238 20 14.9726C20 14 19.8908 13.2703 19.8212 12.9798C21.0493 12.8234 22 11.7714 22 10.5C22 9.13516 20.9059 8.02541 19.5476 8.00046L18.2649 7.97689L17.7515 6.80122C17.2868 5.73725 16.2273 5.00002 15 5.00002C14.0827 5.00002 13.26 5.41251 12.7092 6.06241Z" fill="black"/>
</svg>
